<svg xmlns="http://www.w3.org/2000/svg" version="1.1" xmlns:xlink="http://www.w3.org/1999/xlink" xmlns:svgjs="http://svgjs.dev/svgjs" width="1500" height="742" viewBox="0 0 1500 742"><g transform="matrix(1,0,0,1,-0.9090908617192781,0.2610129744488745)"><svg viewBox="0 0 396 196" data-background-color="#f7eee7" preserveAspectRatio="xMidYMid meet" height="742" width="1500" xmlns="http://www.w3.org/2000/svg" xmlns:xlink="http://www.w3.org/1999/xlink"><g id="tight-bounds" transform="matrix(1,0,0,1,0.2399999874938885,-0.06894135176389682)"><svg viewBox="0 0 395.52 196.13788687765145" height="196.13788687765145" width="395.52"><g><svg viewBox="0 0 395.52 196.13788687765145" height="196.13788687765145" width="395.52"><g><svg viewBox="0 0 395.52 196.13788687765145" height="196.13788687765145" width="395.52"><g id="textblocktransform"><svg viewBox="0 0 395.52 196.13788687765145" height="196.13788687765145" width="395.52" id="textblock"><g><rect width="75.54432" height="12.98705133562846" y="180.5796247019007" fill="#e73d38" data-fill-palette-color="tertiary"></rect><rect width="75.54432" height="12.98705133562846" y="180.5796247019007" x="319.97568" fill="#e73d38" data-fill-palette-color="tertiary"></rect></g><g><svg viewBox="0 0 395.52 144.0108972763636" height="144.0108972763636" width="395.52"><g transform="matrix(1,0,0,1,0,0)"><svg width="395.52" viewBox="3.1 -36.38912895616001 100.072352934848 36.439128956160005" height="144.0108972763636" data-palette-color="#e73d38"><path d="M5.7-34.5L9.5-34.6 12.7-34.7Q13.3-34.7 14.05-34.75 14.8-34.8 15.55-34.85L15.55-34.85Q17.25-35 18.35-35L18.35-35 22.55-34.95Q23.7-34.95 23.7-34.2L23.7-34.2 23.7-31.7Q23.7-31.25 23.53-31.18 23.35-31.1 22.8-31.1L22.8-31.1Q22.15-31.1 21.65-31.15L21.65-31.15 18.45-31.2Q16.55-31.2 14.75-31L14.75-31 12.3-30.85 12.15-29.95Q12.05-28.85 12.05-28.2L12.05-28.2 12-23.75 11.95-21.2 11.95-20Q13-20 13.5-20.05L13.5-20.05 15.9-20.1 17.9-20.15Q18.6-20.2 19.85-20.2L19.85-20.2Q20.65-20.2 20.93-20 21.2-19.8 21.2-19.35L21.2-19.35 21.15-17.7Q21.15-17.3 20.93-17.15 20.7-17 20-17L20-17Q19.1-17 18.5-17.05L18.5-17.05 16.5-17.1 11.85-17.1Q11.85-15.8 11.9-15.2L11.9-15.2 11.95-12.05 11.9-9.6Q11.8-8 11.8-7.15L11.8-7.15 11.85-1.25Q11.85-0.6 11.58-0.35 11.3-0.1 10.7-0.1L10.7-0.1Q10.45-0.1 9.55-0.2L9.55-0.2Q9.1-0.25 7.7-0.25L7.7-0.25 4.05-0.2Q3.5-0.25 3.38-0.4 3.25-0.55 3.25-0.83 3.25-1.1 3.25-1.2L3.25-1.2 3.2-3.85Q3.2-4.55 3.15-5.05L3.15-5.05 3.1-8.45Q3.1-9.2 3.18-9.98 3.25-10.75 3.25-11.1L3.25-11.1Q3.4-12.25 3.4-13.7L3.4-13.7 3.35-19.4 3.4-22.7Q3.5-25 3.5-26.2L3.5-26.2Q3.5-29 3.4-33.1L3.4-33.1Q3.4-34 3.63-34.3 3.85-34.6 4.3-34.6L4.3-34.6Q4.6-34.6 4.93-34.55 5.25-34.5 5.7-34.5L5.7-34.5ZM52.3-1Q52.55-0.5 52.55-0.35L52.55-0.35Q52.55 0.05 51.65 0.05L51.65 0.05 48.05 0.05Q47.85 0.05 47.65-0.3 47.45-0.65 47.3-1 47.15-1.35 47.05-1.6L47.05-1.6Q46.8-2.1 46.12-3.9 45.45-5.7 45.1-6.75L45.1-6.75Q44.95-7.25 44.5-8.22 44.05-9.2 43.85-9.6L43.85-9.6Q43.65-10.2 43.47-10.4 43.3-10.6 42.95-10.6L42.95-10.6Q42.6-10.6 42.07-10.55 41.55-10.5 40.95-10.45L40.95-10.45Q40.55-10.35 38.45-10.35L38.45-10.35Q37-10.35 35.6-10.25L35.6-10.25Q35.15-10.2 34-10.2L34-10.2 31.35-10.25Q31.1-10.25 30.97-10.05 30.85-9.85 30.8-9.58 30.75-9.3 30.7-9.15L30.7-9.15 30.4-7.9Q30.25-7.2 30.02-6.28 29.8-5.35 29.65-4.55L29.65-4.55 29.1-2.4 28.7-0.95Q28.55-0.35 28.42-0.18 28.3 0 28.05 0L28.05 0 25.1 0Q24.85 0 24.85-0.2L24.85-0.2Q24.85-0.3 25.05-0.9L25.05-0.9Q25.45-1.85 25.75-2.8L25.75-2.8Q27.6-9 27.95-10.9L27.95-10.9Q28.4-13.4 29.8-17.35L29.8-17.35Q30.25-19.05 30.65-20.45L30.65-20.45Q30.8-21.15 31.1-22.15L31.1-22.15Q32.05-25.65 33-28.7L33-28.7 34.25-32.7Q34.65-34.25 35.25-35.9L35.25-35.9Q35.55-36.65 35.95-36.25L35.95-36.25Q36.25-36.05 36.4-35.55 36.55-35.05 36.6-34.85L36.6-34.85Q36.75-34.25 39.25-28.85L39.25-28.85Q40.25-26.8 41.4-23.5L41.4-23.5Q41.9-22.05 44.15-17.25L44.15-17.25Q45.3-14.9 45.65-14L45.65-14Q46.45-12.25 49.95-5.5L49.95-5.5 50.55-4.25Q51.7-1.7 52.3-1L52.3-1ZM39.2-17.5Q39.55-17.55 39.8-17.55 40.05-17.55 40.2-17.6 40.35-17.65 40.35-17.75L40.35-17.75Q40.35-17.85 40.2-18.15L40.2-18.15Q39.95-18.6 39.05-20.68 38.15-22.75 37.8-23.8L37.8-23.8Q37.3-25 37.02-25.8 36.75-26.6 36.6-26.9L36.6-26.9Q36.5-27.15 36.37-27.4 36.25-27.65 36.15-27.8 36.05-27.95 35.95-27.95L35.95-27.95Q35.8-27.95 35.62-27.2 35.45-26.45 35.35-26.05L35.35-26.05Q34.45-23.15 34.05-21.65L34.05-21.65Q33.85-20.9 33.47-19.83 33.1-18.75 32.95-18.35L32.95-18.35Q32.8-17.85 32.8-17.55L32.8-17.55Q32.8-17.25 33.25-17.25L33.25-17.25Q34.3-17.25 36.47-17.32 38.65-17.4 39.2-17.5L39.2-17.5ZM65.75-6.55Q66.09-7.6 66.82-9.58 67.55-11.55 68-12.55L68-12.55Q68.5-13.45 69.59-16.73 70.7-20 71.4-22.2L71.4-22.2 73.5-27.4Q74.55-29.85 74.75-30.45L74.75-30.45Q75.2-31.5 75.7-33.2L75.7-33.2 76.2-34.6Q76.3-35 76.47-35.1 76.65-35.2 77-35.05L77-35.05Q77.3-34.95 77.72-34.95 78.15-34.95 78.25-34.95L78.25-34.95Q78.55-34.95 78.55-34.8L78.55-34.8Q78.55-34.7 78.34-34.3L78.34-34.3Q77.34-31.65 76.65-30.45L76.65-30.45Q76.15-29.55 74.25-24.08 72.34-18.6 71.8-16.85L71.8-16.85Q71.75-16.75 69.5-10.45L69.5-10.45Q68.15-6.65 67.84-5.85L67.84-5.85Q67.3-4.5 66.67-2.73 66.05-0.95 65.95-0.75L65.95-0.75Q65.84-0.35 65.72-0.25 65.59-0.15 65.3-0.15L65.3-0.15Q65.05-0.15 64.95-0.23 64.84-0.3 64.82-0.4 64.8-0.5 64.75-0.55L64.75-0.55 63.95-3.05Q62.55-7.6 62.2-8.55L62.2-8.55 58.8-18.15Q58.85-18.05 57.5-22.3L57.5-22.3Q56.65-25.3 55.9-27.5L55.9-27.5Q55.65-28.05 54.8-31.35L54.8-31.35 54.15-33.9Q53.95-34.45 53.95-34.8L53.95-34.8Q53.95-35 54.05-35.05 54.15-35.1 54.25-35.13 54.35-35.15 54.4-35.15L54.4-35.15 56.15-35.15 56.3-35.15Q56.75-35.15 56.9-35 57.05-34.85 57.1-34.63 57.15-34.4 57.2-34.3L57.2-34.3Q57.5-33.6 58.15-30.7L58.15-30.7Q58.6-28.85 60-24.55L60-24.55Q60.25-23.75 60.97-21.5 61.7-19.25 61.95-18.2L61.95-18.2Q62.6-15.55 63.75-12.1L63.75-12.1 64.3-10.55Q64.9-8.65 65.34-7.45L65.34-7.45Q65.7-6.65 65.75-6.55L65.75-6.55ZM103.14-33.25L103.14-32.7Q103.14-31.55 102.94-31.55L102.94-31.55Q102.64-31.55 102.27-31.63 101.89-31.7 101.34-31.7L101.34-31.7 93.34-31.7 87.14-31.75Q86.84-31.75 84.89-31.6L84.89-31.6 83.74-31.5 83.64-30.15Q83.59-29.4 83.59-27.8L83.59-27.8Q83.59-27 83.69-25.7L83.69-25.7Q83.79-24.5 83.79-23.95L83.79-23.95 83.79-21.95Q83.79-21.15 83.84-20.7L83.84-20.7Q84.29-20.65 85.19-20.65L85.19-20.65 87.19-20.65Q87.49-20.65 88.39-20.75L88.39-20.75Q89.69-20.85 90.64-20.85L90.64-20.85Q91.04-20.85 93.44-20.7L93.44-20.7 94.54-20.65Q94.94-20.65 95.69-20.73 96.44-20.8 97.14-20.8L97.14-20.8 98.79-20.75Q100.09-20.65 100.59-20.65L100.59-20.65Q101.14-20.65 101.34-20.7L101.34-20.7 101.64-20.75Q101.99-20.75 102.14-20.53 102.29-20.3 102.24-20.1L102.24-20.1Q102.19-19.75 102.19-19.23 102.19-18.7 102.14-18.3L102.14-18.3Q102.09-17.9 101.99-17.82 101.89-17.75 101.39-17.75L101.39-17.75 99.39-17.95Q95.64-18.3 94.49-18.3L94.49-18.3Q90.24-18.3 88.24-18.15L88.24-18.15Q87.44-18.05 86.49-18.05 85.54-18.05 85.29-18.05L85.29-18.05Q84.34-18.05 83.89-18.1L83.89-18.1 83.74-17.3Q83.64-16.4 83.64-15.7L83.64-15.7Q83.64-15.1 83.74-14.3L83.74-14.3Q83.84-13.5 83.84-12.9L83.84-12.9 83.89-6.95 83.84-4.45Q83.79-4 83.79-3.2L83.79-3.2Q84.44-3.15 85.69-3.15L85.69-3.15Q86.74-3.1 88.94-3.1L88.94-3.1 91.64-3.05Q92.49-3 94.24-3L94.24-3Q95.29-3 96.99-3.1L96.99-3.1 99.09-3.15Q100.29-3.15 101.09-3.1 101.89-3.05 102.29-3.05L102.29-3.05Q102.69-3.05 102.77-2.9 102.84-2.75 102.84-2.25L102.84-2.25Q102.84-1.9 102.79-1.53 102.74-1.15 102.74-0.7L102.74-0.7Q102.74-0.35 102.49-0.23 102.24-0.1 101.69-0.1L101.69-0.1Q101.14-0.1 100.79-0.15L100.79-0.15Q99.44-0.3 95.34-0.3L95.34-0.3Q92.84-0.3 91.74-0.25L91.74-0.25Q90.89-0.2 88.94-0.2L88.94-0.2 84.29-0.25Q83.49-0.3 82.39-0.3L82.39-0.3Q81.69-0.3 81.47-0.48 81.24-0.65 81.24-1.05L81.24-1.05 81.29-1.85Q81.34-2.05 81.34-2.3L81.34-2.3Q81.34-2.45 81.29-3.03 81.24-3.6 81.24-5.15L81.24-5.15Q81.24-6.65 81.14-10.05L81.14-10.05Q80.99-12.85 80.99-15.45L80.99-15.45Q80.99-16.55 81.24-21.8L81.24-21.8Q81.29-22.85 81.34-23.9 81.39-24.95 81.39-25.8L81.39-25.8Q81.39-31.6 81.24-33.45L81.24-33.45Q81.09-34.65 82.69-34.65L82.69-34.65Q83.09-34.65 83.99-34.55L83.99-34.55Q84.79-34.45 85.19-34.45L85.19-34.45 88.34-34.55Q91.74-34.75 93.59-34.75L93.59-34.75Q95.74-34.75 99.64-34.65L99.64-34.65Q100.89-34.6 102.29-34.6L102.29-34.6Q102.89-34.6 103.04-34.3 103.19-34 103.17-33.68 103.14-33.35 103.14-33.25L103.14-33.25Z" opacity="1" transform="matrix(1,0,0,1,0,0)" fill="#e73d38" class="wordmark-text-0" data-fill-palette-color="primary" id="text-0"></path></svg></g></svg></g><g transform="matrix(1,0,0,1,75.54432,178.00841386177842)"><svg viewBox="0 0 244.43135999999998 18.129473015873014" height="18.129473015873014" width="244.43135999999998"><g transform="matrix(1,0,0,1,8,0)"><svg width="228.43135999999998" viewBox="0.98 -37.55 473.69 37.599999999999994" height="18.129473015873014" data-palette-color="#e73d38"><path d="M35.33-35.01L35.33-28.66 21.34-28.66 21.34 0 14.99 0 14.99-28.66 0.98-28.66 0.98-35.01 35.33-35.01ZM65.21-17.5L65.21-8.91Q65.21-7.28 64.79-5.97 64.38-4.66 63.69-3.67 63.01-2.69 62.11-1.99 61.2-1.29 60.21-0.85 59.23-0.42 58.21-0.21 57.2 0 56.3 0L56.3 0 44.85 0Q43.53 0 41.97-0.46 40.4-0.93 39.07-1.99 37.74-3.05 36.85-4.75 35.96-6.45 35.96-8.91L35.96-8.91 35.96-17.5Q35.96-19.95 36.85-21.64 37.74-23.34 39.07-24.4 40.4-25.46 41.97-25.93 43.53-26.39 44.85-26.39L44.85-26.39 56.3-26.39Q58.74-26.39 60.45-25.51 62.16-24.63 63.21-23.3 64.26-21.97 64.73-20.41 65.21-18.85 65.21-17.5L65.21-17.5ZM58.86-8.91L58.86-17.46Q58.86-18.77 58.2-19.41 57.54-20.04 56.3-20.04L56.3-20.04 44.89-20.04Q43.63-20.04 42.97-19.4 42.31-18.75 42.31-17.5L42.31-17.5 42.31-8.91Q42.31-7.67 42.97-7.01 43.63-6.35 44.89-6.35L44.89-6.35 56.3-6.35Q57.59-6.35 58.23-7.01 58.86-7.67 58.86-8.91L58.86-8.91ZM99.46-26.39L99.46-3.2Q99.46-2.51 99.21-1.93 98.97-1.34 98.54-0.92 98.12-0.49 97.54-0.24 96.97 0 96.31 0L96.31 0 81.95 0Q80.78 0 79.45-0.27 78.12-0.54 76.83-1.14 75.53-1.73 74.32-2.65 73.12-3.56 72.21-4.87 71.31-6.18 70.76-7.89 70.21-9.59 70.21-11.74L70.21-11.74 70.21-26.39 76.56-26.39 76.56-11.74Q76.56-10.5 76.98-9.51 77.41-8.52 78.14-7.81 78.88-7.1 79.87-6.73 80.85-6.35 82-6.35L82-6.35 93.11-6.35 93.11-26.39 99.46-26.39ZM128.51-26.39L128.51-20.04 114.23-20.04Q112.93-20.04 112.27-19.4 111.61-18.75 111.61-17.5L111.61-17.5 111.61 0 105.27 0 105.27-17.5Q105.27-19.14 105.68-20.43 106.1-21.73 106.79-22.72 107.49-23.71 108.39-24.4 109.29-25.1 110.28-25.54 111.27-25.98 112.28-26.18 113.3-26.39 114.18-26.39L114.18-26.39 128.51-26.39ZM183.61-31.81L183.61 0 177.26 0 177.26-8.59 154.94-8.59 154.94 0 148.6 0 148.6-17.5Q148.6-21.34 149.91-24.56 151.23-27.78 153.58-30.1 155.92-32.42 159.12-33.72 162.32-35.01 166.1-35.01L166.1-35.01 180.41-35.01Q181.07-35.01 181.65-34.77 182.24-34.52 182.68-34.08 183.12-33.64 183.36-33.06 183.61-32.47 183.61-31.81L183.61-31.81ZM154.94-17.5L154.94-14.94 177.26-14.94 177.26-28.66 166.1-28.66Q165.81-28.66 164.87-28.58 163.93-28.49 162.7-28.15 161.46-27.81 160.09-27.1 158.73-26.39 157.58-25.15 156.43-23.9 155.69-22.03 154.94-20.17 154.94-17.5L154.94-17.5ZM219.52-14.65L219.52 0 213.17 0 213.17-14.65Q213.17-15.89 212.74-16.88 212.31-17.87 211.58-18.58 210.85-19.29 209.86-19.67 208.87-20.04 207.72-20.04L207.72-20.04 196.62-20.04 196.62 0 190.27 0 190.27-23.24Q190.27-23.9 190.51-24.48 190.76-25.05 191.2-25.48 191.64-25.9 192.22-26.15 192.81-26.39 193.47-26.39L193.47-26.39 207.77-26.39Q208.97-26.39 210.3-26.12 211.63-25.85 212.94-25.26 214.24-24.66 215.43-23.74 216.61-22.83 217.53-21.52 218.44-20.21 218.98-18.51 219.52-16.8 219.52-14.65L219.52-14.65ZM254.04-37.55L254.04-8.91Q254.04-7.28 253.62-5.97 253.21-4.66 252.52-3.67 251.84-2.69 250.93-1.99 250.03-1.29 249.04-0.85 248.05-0.42 247.04-0.21 246.03 0 245.12 0L245.12 0 233.67 0Q232.04 0 230.74-0.42 229.45-0.83 228.46-1.53 227.47-2.22 226.78-3.13 226.08-4.03 225.64-5.02 225.2-6.01 224.99-7.02 224.79-8.03 224.79-8.91L224.79-8.91 224.79-17.5Q224.79-19.95 225.68-21.64 226.57-23.34 227.9-24.4 229.23-25.46 230.79-25.93 232.36-26.39 233.67-26.39L233.67-26.39 245.12-26.39 245.12-20.04 233.72-20.04Q232.45-20.04 231.79-19.4 231.13-18.75 231.13-17.5L231.13-17.5 231.13-8.96Q231.13-7.67 231.78-7.01 232.43-6.35 233.67-6.35L233.67-6.35 245.12-6.35Q246.42-6.35 247.05-7.01 247.69-7.67 247.69-8.91L247.69-8.91 247.69-37.55 254.04-37.55ZM308.16-35.01L308.16-28.66 294.17-28.66 294.17 0 287.82 0 287.82-28.66 273.81-28.66 273.81-35.01 308.16-35.01ZM332.27-26.39L332.27-20.04 317.99-20.04Q316.7-20.04 316.04-19.4 315.38-18.75 315.38-17.5L315.38-17.5 315.38 0 309.03 0 309.03-17.5Q309.03-19.14 309.45-20.43 309.86-21.73 310.56-22.72 311.25-23.71 312.16-24.4 313.06-25.1 314.05-25.54 315.04-25.98 316.05-26.18 317.06-26.39 317.94-26.39L317.94-26.39 332.27-26.39ZM361.64-17.65L361.64-8.74Q361.64-7.42 361.18-5.9 360.71-4.37 359.68-3.06 358.64-1.76 356.97-0.88 355.29 0 352.9 0L352.9 0 341.45 0Q340.13 0 338.61-0.46 337.08-0.93 335.78-1.97 334.47-3 333.59-4.68 332.71-6.35 332.71-8.74L332.71-8.74Q332.71-10.06 333.18-11.6 333.64-13.13 334.68-14.44 335.71-15.75 337.39-16.63 339.06-17.5 341.45-17.5L341.45-17.5 352.9-17.5 352.9-11.45 341.45-11.45Q340.16-11.45 339.45-10.66 338.74-9.86 338.74-8.69L338.74-8.69Q338.74-7.45 339.56-6.75 340.38-6.05 341.5-6.05L341.5-6.05 352.9-6.05Q354.2-6.05 354.9-6.84 355.61-7.62 355.61-8.79L355.61-8.79 355.61-17.65Q355.61-18.9 354.84-19.63 354.07-20.36 352.9-20.36L352.9-20.36 338.96-20.36 338.96-26.39 352.9-26.39Q354.22-26.39 355.75-25.93 357.27-25.46 358.58-24.43 359.88-23.39 360.76-21.72 361.64-20.04 361.64-17.65L361.64-17.65ZM391.82-26.39L398.55-26.39Q397.48-23.05 396.04-19.8 394.6-16.55 392.73-13.61 390.86-10.67 388.56-8.17 386.25-5.66 383.45-3.85 380.66-2.03 377.37-0.99 374.09 0.05 370.26 0.05L370.26 0.05Q369.6 0.05 369.01-0.2 368.43-0.44 367.99-0.87 367.55-1.29 367.3-1.87 367.06-2.44 367.06-3.1L367.06-3.1 367.06-26.39 373.41-26.39 373.41-6.54Q375.73-6.54 377.86-7.54 380-8.54 381.9-10.19 383.81-11.84 385.43-13.94 387.05-16.04 388.32-18.25 389.59-20.46 390.49-22.58 391.38-24.71 391.82-26.39L391.82-26.39ZM429.22-17.65L429.22-17.65Q429.22-16.33 428.75-14.81 428.29-13.28 427.25-11.98 426.21-10.67 424.54-9.79 422.87-8.91 420.48-8.91L420.48-8.91 409.03-8.91 409.03-14.94 420.48-14.94Q421.77-14.94 422.48-15.73 423.19-16.53 423.19-17.7L423.19-17.7Q423.19-18.95 422.39-19.65 421.6-20.36 420.48-20.36L420.48-20.36 409.03-20.36Q407.73-20.36 407.02-19.57 406.32-18.77 406.32-17.6L406.32-17.6 406.32-8.74Q406.32-7.47 407.11-6.76 407.9-6.05 409.07-6.05L409.07-6.05 420.48-6.05 420.48 0 409.03 0Q407.71 0 406.18-0.46 404.66-0.93 403.35-1.97 402.04-3 401.16-4.68 400.28-6.35 400.28-8.74L400.28-8.74 400.28-17.65Q400.28-18.97 400.75-20.5 401.21-22.02 402.25-23.33 403.29-24.63 404.96-25.51 406.63-26.39 409.03-26.39L409.03-26.39 420.48-26.39Q421.79-26.39 423.32-25.93 424.85-25.46 426.15-24.43 427.46-23.39 428.34-21.72 429.22-20.04 429.22-17.65ZM445.08-6.35L445.08 0 442.25 0Q440.88 0 439.33-0.46 437.78-0.93 436.44-1.99 435.1-3.05 434.22-4.75 433.34-6.45 433.34-8.91L433.34-8.91 433.34-37.55 439.69-37.55 439.69-8.91Q439.69-7.74 440.42-7.04 441.15-6.35 442.25-6.35L442.25-6.35 445.08-6.35ZM474.67-8.91L474.67-8.91Q474.67-7.28 474.25-5.97 473.84-4.66 473.16-3.67 472.47-2.69 471.57-1.99 470.67-1.29 469.68-0.85 468.69-0.42 467.67-0.21 466.66 0 465.76 0L465.76 0 448.57 0 448.57-6.35 465.71-6.35Q467-6.35 467.66-7.01 468.32-7.67 468.32-8.91L468.32-8.91Q468.2-11.45 465.76-11.45L465.76-11.45 455.92-11.45Q453.82-11.45 452.36-12.18 450.89-12.92 449.97-14.01 449.06-15.11 448.66-16.38 448.25-17.65 448.25-18.75L448.25-18.75Q448.25-20.87 449.01-22.33 449.77-23.78 450.91-24.68 452.06-25.59 453.4-25.99 454.75-26.39 455.92-26.39L455.92-26.39 471.52-26.39 471.52-20.04 455.97-20.04Q455.48-20.04 455.2-19.93 454.92-19.82 454.78-19.64 454.65-19.46 454.63-19.25 454.6-19.04 454.6-18.85L454.6-18.85Q454.63-18.46 454.75-18.24 454.87-18.02 455.05-17.92 455.24-17.82 455.47-17.81 455.7-17.8 455.92-17.8L455.92-17.8 465.76-17.8Q468.2-17.8 469.91-16.92 471.62-16.04 472.67-14.71 473.72-13.38 474.19-11.82 474.67-10.25 474.67-8.91Z" opacity="1" transform="matrix(1,0,0,1,0,0)" fill="#e73d38" class="slogan-text-1" data-fill-palette-color="secondary" id="text-1"></path></svg></g></svg></g></svg></g></svg></g><g></g></svg></g><defs></defs></svg><rect width="395.52" height="196.13788687765145" fill="none" stroke="none" visibility="hidden"></rect></g></svg></g></svg>